<?xml version="1.0" encoding="utf-8"?>
<!-- Generator: Adobe Illustrator 18.0.0, SVG Export Plug-In . SVG Version: 6.00 Build 0)  -->
<!DOCTYPE svg PUBLIC "-//W3C//DTD SVG 1.1//EN" "http://www.w3.org/Graphics/SVG/1.1/DTD/svg11.dtd">
<svg version="1.1" id="Слой_2" xmlns="http://www.w3.org/2000/svg" xmlns:xlink="http://www.w3.org/1999/xlink" x="0px" y="0px"
	 viewBox="0 0 60.6 74.6" enable-background="new 0 0 60.6 74.6" xml:space="preserve">
<g>
	<path fill="#335CAA" d="M-249.4,71.1h-53c-2.1,0-3.8-1.7-3.8-3.8V27.5c0-2.1,1.7-3.8,3.8-3.8h7.6c0.5,0,0.9,0.4,0.9,0.9
		c0,0.5-0.4,0.9-0.9,0.9h-7.6c-1.1,0-2,0.9-2,2v39.7c0,1.1,0.9,2,2,2h53c1.1,0,2-0.9,2-2V32.8c0-1.1-0.9-2-2-2h-50.5
		c-1.1,0-2-0.9-2-2s0.9-2,2-2h5.1c0.5,0,0.9,0.4,0.9,0.9c0,0.5-0.4,0.9-0.9,0.9h-5.1c-0.1,0-0.2,0.1-0.2,0.2c0,0.1,0.1,0.2,0.2,0.2
		h50.5c2.1,0,3.8,1.7,3.8,3.8v34.5C-245.6,69.4-247.3,71.1-249.4,71.1z"/>
</g>
<g>
	<path fill="#335CAA" d="M-252.1,28.5h-16.4c-0.5,0-0.9-0.4-0.9-0.9c0-0.5,0.4-0.9,0.9-0.9h15.4c-0.3-0.7-1-1.2-1.9-1.2h-13.8
		c-0.5,0-0.9-0.4-0.9-0.9c0-0.5,0.4-0.9,0.9-0.9h13.8c2.1,0,3.8,1.7,3.8,3.8C-251.2,28-251.6,28.5-252.1,28.5z"/>
</g>
<g>
	<path fill="#335CAA" d="M-246.5,54.9h-8.1c-2.5,0-4.5-2-4.5-4.5V47c0-2.5,2-4.5,4.5-4.5h8.1c0.5,0,0.9,0.4,0.9,0.9V54
		C-245.6,54.5-246,54.9-246.5,54.9z M-254.6,44.2c-1.5,0-2.8,1.2-2.8,2.8v3.4c0,1.5,1.2,2.8,2.8,2.8h7.2v-8.9H-254.6z M-252.3,51.8
		c-1.7,0-3.2-1.4-3.2-3.2c0-1.7,1.4-3.2,3.2-3.2c1.7,0,3.2,1.4,3.2,3.2C-249.2,50.4-250.6,51.8-252.3,51.8z M-252.3,47.3
		c-0.8,0-1.4,0.6-1.4,1.4c0,0.8,0.6,1.4,1.4,1.4c0.8,0,1.4-0.6,1.4-1.4C-250.9,47.9-251.6,47.3-252.3,47.3z"/>
</g>
<g>
	<path fill="#335CAA" d="M-252.3,51.7c-1.7,0-3.1-1.4-3.1-3.1s1.4-3.1,3.1-3.1c1.7,0,3.1,1.4,3.1,3.1S-250.6,51.7-252.3,51.7z
		 M-252.3,47.3c-0.7,0-1.3,0.6-1.3,1.3c0,0.7,0.6,1.3,1.3,1.3c0.7,0,1.3-0.6,1.3-1.3C-251,47.9-251.6,47.3-252.3,47.3z"/>
</g>
<g>
	<path fill="#335CAA" d="M-250.1,30.8H-301c-0.5,0-0.9-0.4-0.9-0.9v-2.3c0-0.5,0.4-0.9,0.9-0.9h6.2c0.5,0,0.9,0.4,0.9,0.9
		c0,0.5-0.4,0.9-0.9,0.9h-5.3V29h49.2v-0.5h-17.5c-0.5,0-0.9-0.4-0.9-0.9c0-0.5,0.4-0.9,0.9-0.9h18.4c0.5,0,0.9,0.4,0.9,0.9v2.3
		C-249.2,30.4-249.6,30.8-250.1,30.8z"/>
</g>
<g>
	<path fill="#335CAA" d="M-268.8,30.8c-0.5,0-0.9-0.4-0.9-0.9V9.8c0-2.3-1.8-4.1-4.1-4.1h-16c-0.4,0-9.6,0-10,0
		c-0.5,0-0.9-0.4-0.9-0.8c0-0.5,0.3-0.9,0.8-0.9c0.2,0,9.9,0,10,0h16c3.2,0,5.9,2.6,5.9,5.9v20.1C-267.9,30.4-268.3,30.8-268.8,30.8
		z"/>
</g>
<g>
	<path fill="#335CAA" d="M-294.8,30.8c-0.5,0-0.9-0.4-0.9-0.9V9.8c0-0.5,0.4-0.9,0.9-0.9c0.5,0,0.9,0.4,0.9,0.9v20.1
		C-293.9,30.4-294.3,30.8-294.8,30.8z"/>
</g>
<g>
	<path fill="#335CAA" d="M-294.8,30.8c-0.5,0-0.9-0.4-0.9-0.9V9.8c0-2.3-1.8-4.1-4.1-4.1c-0.5,0-0.9-0.4-0.9-0.9s0.4-0.9,0.9-0.9
		c3.2,0,5.9,2.6,5.9,5.9v20.1C-293.9,30.4-294.3,30.8-294.8,30.8z"/>
</g>
<g>
	<path fill="#335CAA" d="M-294.8,10.6h-10c-0.5,0-0.9-0.4-0.9-0.9c0-3.2,2.6-5.9,5.9-5.9c0.5,0,0.9,0.4,0.9,0.9s-0.4,0.9-0.9,0.9
		c-2,0-3.6,1.4-4,3.2h9c0.5,0,0.9,0.4,0.9,0.9C-293.9,10.3-294.3,10.6-294.8,10.6z"/>
</g>
<g>
	<path fill="#335CAA" d="M-272.7,13.2H-292c-0.5,0-0.9-0.4-0.9-0.9c0-0.5,0.4-0.9,0.9-0.9h19.3c0.5,0,0.9,0.4,0.9,0.9
		C-271.8,12.8-272.2,13.2-272.7,13.2z"/>
</g>
<g>
	<path fill="#335CAA" d="M-272.7,17H-292c-0.5,0-0.9-0.4-0.9-0.9s0.4-0.9,0.9-0.9h19.3c0.5,0,0.9,0.4,0.9,0.9S-272.2,17-272.7,17z"
		/>
</g>
<g>
	<path fill="#335CAA" d="M-272.7,20.7H-292c-0.5,0-0.9-0.4-0.9-0.9s0.4-0.9,0.9-0.9h19.3c0.5,0,0.9,0.4,0.9,0.9
		S-272.2,20.7-272.7,20.7z"/>
</g>
<g>
	<path fill="#335CAA" d="M-272.7,24.5H-292c-0.5,0-0.9-0.4-0.9-0.9s0.4-0.9,0.9-0.9h19.3c0.5,0,0.9,0.4,0.9,0.9
		S-272.2,24.5-272.7,24.5z"/>
</g>
<g>
	<g>
		<path fill="#335CAA" d="M-553.8,17.8h-37.3c-0.5,0-0.9-0.4-0.9-0.9s0.4-0.9,0.9-0.9h37.3c0.5,0,0.9,0.4,0.9,0.9
			S-553.3,17.8-553.8,17.8z"/>
	</g>
</g>
<g>
	<g>
		<path fill="#335CAA" d="M-553.8,21.7h-37.3c-0.5,0-0.9-0.4-0.9-0.9s0.4-0.9,0.9-0.9h37.3c0.5,0,0.9,0.4,0.9,0.9
			S-553.3,21.7-553.8,21.7z"/>
	</g>
</g>
<g>
	<g>
		<path fill="#335CAA" d="M-553.8,25.7h-37.3c-0.5,0-0.9-0.4-0.9-0.9c0-0.5,0.4-0.9,0.9-0.9h37.3c0.5,0,0.9,0.4,0.9,0.9
			C-552.9,25.3-553.3,25.7-553.8,25.7z"/>
	</g>
</g>
<g>
	<g>
		<path fill="#335CAA" d="M-553.8,29.6h-37.3c-0.5,0-0.9-0.4-0.9-0.9c0-0.5,0.4-0.9,0.9-0.9h37.3c0.5,0,0.9,0.4,0.9,0.9
			C-552.9,29.2-553.3,29.6-553.8,29.6z"/>
	</g>
</g>
<g>
	<g>
		<path fill="#335CAA" d="M-553.8,33.5h-37.3c-0.5,0-0.9-0.4-0.9-0.9c0-0.5,0.4-0.9,0.9-0.9h37.3c0.5,0,0.9,0.4,0.9,0.9
			C-552.9,33.2-553.3,33.5-553.8,33.5z"/>
	</g>
</g>
<g>
	<g>
		<path fill="#335CAA" d="M-553.8,37.5h-37.3c-0.5,0-0.9-0.4-0.9-0.9c0-0.5,0.4-0.9,0.9-0.9h37.3c0.5,0,0.9,0.4,0.9,0.9
			C-552.9,37.1-553.3,37.5-553.8,37.5z"/>
	</g>
</g>
<g>
	<g>
		<path fill="#335CAA" d="M-553.8,41.4h-37.3c-0.5,0-0.9-0.4-0.9-0.9c0-0.5,0.4-0.9,0.9-0.9h37.3c0.5,0,0.9,0.4,0.9,0.9
			C-552.9,41-553.3,41.4-553.8,41.4z"/>
	</g>
</g>
<g>
	<g>
		<path fill="#335CAA" d="M-572.7,45.4h-18.5c-0.5,0-0.9-0.4-0.9-0.9c0-0.5,0.4-0.9,0.9-0.9h18.5c0.5,0,0.9,0.4,0.9,0.9
			C-571.8,45-572.2,45.4-572.7,45.4z"/>
	</g>
</g>
<g>
	<g>
		<path fill="#335CAA" d="M-557.9,57.5c0,0-0.2-0.1-0.3-0.1c-0.2,0-0.4,0-0.4,0s0.3-0.1,0.5-0.4c0.2-0.3,0.2-0.4,0.2-0.4
			s-0.1,0-0.3-0.1c-0.2,0-0.3,0-0.3,0s0.3-0.2,0.4-0.4c0.1-0.2,0.1-0.4,0.1-0.4s-0.1,0-0.4,0c-0.2,0.1-0.3,0.1-0.3,0.1
			s0.2-0.3,0.4-0.7c0.2-0.4-0.1-0.6-0.1-0.6s-0.1,0.1-0.4,0.4c-0.2,0.2-0.4,0.4-0.4,0.4s0.5-0.7,0.5-1.2c0-0.5-0.3-0.7-0.3-0.7
			s-0.4,1-1.6,2.4c-0.5,0.6-1.3,1-1.5,1.3c-0.2,0.4,0.2,0.5,0.3,0.7c0.2,0.2-0.1,0.7-0.7,0.6c-0.5-0.1-1.3-1.7-0.7-2.5
			c0.4-0.5,0.9-0.8,1.4-0.7c0.3,0.1,0.4,0.2,0.4,0.2s0.1-0.2,0-0.5c-0.1-0.3-0.5-0.3-0.5-0.3s0-0.2-0.2-0.3
			c-0.5-0.3-1.9-0.1-1.9-0.1s0,0.1,0.2,0.3c0.2,0.2,0.3,0.2,0.3,0.2s-0.6,0.5-0.8,0.9c-0.3,0.3-0.3,1-0.3,1l0,0
			c0-0.1-0.1-0.6-0.3-0.9c-0.3-0.3-0.8-0.9-0.8-0.9s0.1,0,0.3-0.2c0.2-0.2,0.2-0.3,0.2-0.3s-1.3-0.2-1.9,0.1
			c-0.2,0.1-0.2,0.3-0.2,0.3s-0.4,0-0.5,0.3c-0.1,0.4,0,0.5,0,0.5s0.1-0.1,0.4-0.2c0.5-0.1,1,0.2,1.4,0.7c0.6,0.8-0.2,2.4-0.7,2.5
			c-0.6,0.1-0.9-0.4-0.7-0.6c0.2-0.2,0.5-0.3,0.3-0.7c-0.2-0.4-1-0.8-1.5-1.3c-1.2-1.4-1.6-2.4-1.6-2.4s-0.2,0.2-0.3,0.7
			c0,0.5,0.5,1.2,0.5,1.2s-0.2-0.2-0.4-0.4c-0.2-0.2-0.4-0.4-0.4-0.4s-0.3,0.2-0.1,0.6c0.2,0.4,0.4,0.7,0.4,0.7s-0.1-0.1-0.3-0.1
			c-0.2-0.1-0.4,0-0.4,0s0,0.2,0.1,0.4c0.1,0.2,0.4,0.4,0.4,0.4s-0.1,0-0.3,0c-0.2,0-0.3,0.1-0.3,0.1s0,0.1,0.2,0.4
			c0.2,0.3,0.5,0.4,0.5,0.4s-0.2,0-0.4,0c-0.2,0-0.3,0.1-0.3,0.1s0.1,0.2,0.3,0.4c0.1,0.1,0.4,0.2,0.4,0.2s-0.1,0-0.3,0.1
			c-0.2,0.1-0.3,0.3-0.3,0.3s0.2,0.2,0.4,0.3c0.2,0.1,0.4,0.1,0.4,0.1s-0.2,0.1-0.3,0.2c-0.2,0.2-0.2,0.4-0.2,0.4s0.2,0.1,0.4,0.1
			c0.2,0,0.4,0,0.4,0s-0.1,0.1-0.2,0.2c-0.1,0.2-0.1,0.4-0.1,0.4s0.2,0,0.4,0c0.2,0,0.2-0.1,0.2-0.1c0,0-0.1,0.1-0.2,0.3
			c0,0.1,0,0.3,0,0.3s0.2,0,0.4,0c0.2-0.1,0.3-0.2,0.3-0.2s-0.1,0.3,0.1,0.7c0,0,0.1,0,0.3-0.1c0.1-0.1,0.3-0.3,0.3-0.3
			s-0.1,0.1,0,0.3c0,0.2,0.2,0.3,0.2,0.3s0.3-0.1,0.4-0.2c0.2-0.2,0.2-0.4,0.2-0.4s0,0.2,0.2,0.3c0.1,0.1,0.2,0.2,0.2,0.2
			s0.2-0.2,0.3-0.3c0.1-0.4,0.1-0.7,0.1-0.7s0.1,0.1,0.2,0.1c0.2-0.1,0.1-0.2,0.1-0.2s0.4,0.6,0.3,1c-0.3,0.8-0.8,0.2-1.1,0.8
			c-0.2,0.4,0.1,0.8-0.1,0.9c-0.2,0.1-0.4,0-0.4,0s0.3,0.3,0.6,0.3c0.4,0,0.5-0.2,0.5-0.2s0.1,0.3-0.3,0.5c-0.4,0.2-0.7,0.3-0.8,0.1
			c-0.2-0.2-0.1-0.4-0.4-0.3c-0.3,0.1-0.6,0.3-0.6,0.4c0,0.2,0.1,0.3,0.1,0.3s-0.2,0.1,0.1,0.4c0.3,0.3,0.5,0.3,0.6,0.1
			c0.1-0.1,0.3-0.3,0.5-0.4c1.2-0.7,1.6-0.3,1.7-0.5c0.1-0.2-0.6-0.9-0.2-1c0.4-0.1,0.6-0.5,0.8-0.2c0.2,0.3,0.2,0.6,0,0.8
			c-0.2,0.2-0.3,0.4-0.3,0.4s-0.3,0.1-0.5,0.3c-0.2,0.2-0.5,0.6-0.6,0.3c-0.1-0.3,0.1-0.3,0.1-0.3s-0.3,0-0.4,0.3
			c0,0.2,0.2,0.3,0.2,0.3s-0.4,0.2-0.3,0.5c0.2,0.3,0.2,0.6,0.2,0.6s0.1-0.1,0.1-0.2c0.1-0.1,0-0.2,0-0.2s0,0.2,0.3,0.4
			c0.2,0.2,0.7,0,0.7,0s0,0.3,0.4,0.4c0.4,0.1,0.5-0.1,0.5-0.1s0,0.1,0.1,0.2c0.2,0.2,0.2,0.2,0.2,0.2s0.1,0,0.2-0.2
			c0.1-0.1,0.1-0.2,0.1-0.2s0.2,0.2,0.5,0.1c0.4-0.1,0.4-0.4,0.4-0.4s0.4,0.2,0.7,0c0.2-0.2,0.3-0.4,0.3-0.4s0,0.1,0,0.2
			c0.1,0.1,0.1,0.2,0.1,0.2s0.1-0.2,0.2-0.6c0.1-0.3-0.3-0.5-0.3-0.5s0.2-0.1,0.2-0.3c-0.1-0.3-0.4-0.3-0.4-0.3s0.2,0.1,0.1,0.3
			c-0.1,0.3-0.4-0.1-0.6-0.3c-0.2-0.2-0.5-0.3-0.5-0.3s-0.1-0.2-0.3-0.4c-0.2-0.2-0.2-0.5,0-0.8c0.2-0.3,0.4,0.1,0.8,0.2
			c0.4,0.1-0.3,0.8-0.2,1c0.1,0.2,0.5-0.2,1.7,0.5c0.3,0.2,0.4,0.3,0.5,0.4c0.1,0.1,0.2,0.2,0.6-0.1c0.3-0.3,0.1-0.4,0.1-0.4
			s0.1-0.2,0.1-0.3c0-0.2-0.3-0.4-0.6-0.4c-0.3-0.1-0.2,0.1-0.4,0.3c-0.2,0.2-0.4,0.1-0.8-0.1c-0.4-0.2-0.3-0.5-0.3-0.5
			s0.1,0.2,0.5,0.2c0.3,0,0.6-0.3,0.6-0.3s-0.1,0-0.4,0c-0.2-0.1,0.1-0.5-0.1-0.9c-0.3-0.5-0.8,0-1.1-0.8c-0.1-0.4,0.3-1,0.3-1
			s-0.1,0.2,0.1,0.2c0.2,0.1,0.2-0.1,0.2-0.1s0,0.3,0.1,0.7c0,0.2,0.3,0.3,0.3,0.3s0.1,0,0.2-0.2c0.1-0.1,0.2-0.3,0.2-0.3
			s0,0.2,0.2,0.4c0.1,0.1,0.4,0.2,0.4,0.2s0.1-0.1,0.2-0.3c0-0.2,0-0.3,0-0.3s0.2,0.2,0.3,0.3c0.1,0.1,0.3,0.1,0.3,0.1
			c0.2-0.3,0.1-0.7,0.1-0.7s0.2,0.1,0.3,0.2c0.2,0.1,0.4,0,0.4,0s0-0.2,0-0.3c-0.1-0.2-0.2-0.3-0.2-0.3c0,0,0.1,0,0.2,0.1
			c0.2,0,0.4,0,0.4,0s0-0.2-0.1-0.4c0-0.1-0.2-0.2-0.2-0.2s0.2,0,0.4,0c0.2,0,0.4-0.1,0.4-0.1s0-0.2-0.2-0.4
			c-0.1-0.1-0.3-0.2-0.3-0.2s0.2,0,0.4-0.1c0.2-0.1,0.4-0.3,0.4-0.3s-0.1-0.2-0.3-0.3c-0.2-0.1-0.3-0.1-0.3-0.1s0.3-0.1,0.4-0.2
			C-558,57.7-557.9,57.5-557.9,57.5z"/>
	</g>
</g>
<g>
	<g>
		<path fill="#335CAA" d="M-564.5,71.3c-6.4,0-11.6-5.2-11.6-11.6s5.2-11.6,11.6-11.6c6.4,0,11.6,5.2,11.6,11.6
			S-558.1,71.3-564.5,71.3z M-564.5,49.9c-5.4,0-9.9,4.4-9.9,9.9c0,5.4,4.4,9.9,9.9,9.9c5.4,0,9.9-4.4,9.9-9.9
			C-554.7,54.3-559.1,49.9-564.5,49.9z"/>
	</g>
</g>
<path fill="#335CAA" d="M59.7,0H22.4H11.5H5.8C2.6,0,0,2.6,0,5.8v63.1c0,3.2,2.6,5.8,5.8,5.8h54c0.5,0,0.9-0.4,0.9-0.9V0.9
	C60.6,0.4,60.2,0,59.7,0z M21.6,1.7V17l-4-3.4c-0.2-0.1-0.4-0.2-0.6-0.2s-0.4,0.1-0.6,0.2l-4,3.4V1.7H21.6z M5.8,1.7h4.9v17.2
	c0,0.3,0.2,0.6,0.5,0.8c0.3,0.1,0.7,0.1,0.9-0.1l4.9-4.1l4.9,4.1c0.2,0.1,0.4,0.2,0.6,0.2c0.1,0,0.2,0,0.4-0.1
	c0.3-0.1,0.5-0.4,0.5-0.8V1.7h35.6v58.5H5.8c-1.6,0-3,0.6-4,1.7V5.8C1.7,3.5,3.5,1.7,5.8,1.7z M5.8,72.9c-2.2,0-4-1.8-4-4V66
	c0-2.2,1.8-4,4-4h53.1v1.4H4.6c-0.5,0-0.9,0.4-0.9,0.9c0,0.5,0.4,0.9,0.9,0.9h54.2v1.4H4.3c-0.5,0-0.9,0.4-0.9,0.9
	c0,0.5,0.4,0.9,0.9,0.9h54.5v1.4H4.6c-0.5,0-0.9,0.4-0.9,0.9c0,0.5,0.4,0.9,0.9,0.9h54.2v1.4H5.8z"/>
<g>
	<g>
		<path fill="#335CAA" d="M-597.6,69.8h-9c-0.5,0-0.9-0.4-0.9-0.9v-66c0-0.5,0.4-0.9,0.9-0.9h49.8c0.5,0,0.9,0.4,0.9,0.9v5.4
			c0,0.5-0.4,0.9-0.9,0.9c-0.5,0-0.9-0.4-0.9-0.9V3.8h-48.1V68h8.2c0.5,0,0.9,0.4,0.9,0.9S-597.1,69.8-597.6,69.8z"/>
	</g>
</g>
<g>
	<g>
		<path fill="#335CAA" d="M-547.8,75.1h-49.8c-0.5,0-0.9-0.4-0.9-0.9v-66c0-0.5,0.4-0.9,0.9-0.9h49.8c0.5,0,0.9,0.4,0.9,0.9v66
			C-546.9,74.7-547.3,75.1-547.8,75.1z M-596.7,73.4h48.1V9.1h-48.1V73.4z"/>
	</g>
</g>
</svg>
