<?xml version="1.0" encoding="utf-8"?>
<!-- Generator: Adobe Illustrator 18.0.0, SVG Export Plug-In . SVG Version: 6.00 Build 0)  -->
<!DOCTYPE svg PUBLIC "-//W3C//DTD SVG 1.1//EN" "http://www.w3.org/Graphics/SVG/1.1/DTD/svg11.dtd">
<svg version="1.1" id="Слой_2" xmlns="http://www.w3.org/2000/svg" xmlns:xlink="http://www.w3.org/1999/xlink" x="0px" y="0px"
	 viewBox="0 0 60.6 73.1" enable-background="new 0 0 60.6 73.1" xml:space="preserve">
<g>
	<path fill="#335CAA" d="M15.5,14.9c0,0.5,0.4,0.9,0.9,0.9h37.3c0.5,0,0.9-0.4,0.9-0.9c0-0.5-0.4-0.9-0.9-0.9H16.3
		C15.8,14,15.5,14.4,15.5,14.9z"/>
	<path fill="#335CAA" d="M53.7,17.9H16.3c-0.5,0-0.9,0.4-0.9,0.9s0.4,0.9,0.9,0.9h37.3c0.5,0,0.9-0.4,0.9-0.9S54.1,17.9,53.7,17.9z"
		/>
	<path fill="#335CAA" d="M53.7,21.9H16.3c-0.5,0-0.9,0.4-0.9,0.9c0,0.5,0.4,0.9,0.9,0.9h37.3c0.5,0,0.9-0.4,0.9-0.9
		C54.5,22.3,54.1,21.9,53.7,21.9z"/>
	<path fill="#335CAA" d="M53.7,25.8H16.3c-0.5,0-0.9,0.4-0.9,0.9s0.4,0.9,0.9,0.9h37.3c0.5,0,0.9-0.4,0.9-0.9S54.1,25.8,53.7,25.8z"
		/>
	<path fill="#335CAA" d="M53.7,29.8H16.3c-0.5,0-0.9,0.4-0.9,0.9c0,0.5,0.4,0.9,0.9,0.9h37.3c0.5,0,0.9-0.4,0.9-0.9
		C54.5,30.2,54.1,29.8,53.7,29.8z"/>
	<path fill="#335CAA" d="M53.7,33.7H16.3c-0.5,0-0.9,0.4-0.9,0.9c0,0.5,0.4,0.9,0.9,0.9h37.3c0.5,0,0.9-0.4,0.9-0.9
		C54.5,34.1,54.1,33.7,53.7,33.7z"/>
	<path fill="#335CAA" d="M53.7,37.7H16.3c-0.5,0-0.9,0.4-0.9,0.9c0,0.5,0.4,0.9,0.9,0.9h37.3c0.5,0,0.9-0.4,0.9-0.9
		C54.5,38.1,54.1,37.7,53.7,37.7z"/>
	<path fill="#335CAA" d="M35.7,42.5c0-0.5-0.4-0.9-0.9-0.9H16.3c-0.5,0-0.9,0.4-0.9,0.9c0,0.5,0.4,0.9,0.9,0.9h18.5
		C35.3,43.3,35.7,43,35.7,42.5z"/>
	<path fill="#335CAA" d="M49.6,54.6c0,0-0.1,0-0.3-0.1c-0.2,0-0.3,0-0.3,0s0.3-0.2,0.4-0.4c0.1-0.2,0.1-0.4,0.1-0.4s-0.1,0-0.4,0
		c-0.2,0.1-0.3,0.1-0.3,0.1s0.2-0.3,0.4-0.7c0.2-0.4-0.1-0.6-0.1-0.6S49,52.7,48.8,53c-0.2,0.2-0.4,0.4-0.4,0.4s0.5-0.7,0.5-1.2
		c0-0.5-0.3-0.7-0.3-0.7s-0.4,1-1.6,2.4c-0.5,0.6-1.3,1-1.5,1.3c-0.2,0.4,0.2,0.5,0.3,0.7c0.2,0.2-0.1,0.7-0.7,0.6
		c-0.5-0.1-1.3-1.7-0.7-2.5c0.4-0.5,0.9-0.8,1.4-0.7c0.3,0.1,0.4,0.2,0.4,0.2s0.1-0.2,0-0.5c-0.1-0.3-0.5-0.3-0.5-0.3s0-0.2-0.2-0.3
		c-0.5-0.3-1.9-0.1-1.9-0.1s0,0.1,0.2,0.3c0.2,0.2,0.3,0.2,0.3,0.2s-0.6,0.5-0.8,0.9c-0.3,0.3-0.3,1-0.3,1c0-0.1-0.1-0.6-0.3-0.9
		c-0.3-0.3-0.8-0.9-0.8-0.9s0.1,0,0.3-0.2c0.2-0.2,0.2-0.3,0.2-0.3s-1.3-0.2-1.9,0.1c-0.2,0.1-0.2,0.3-0.2,0.3s-0.4,0-0.5,0.3
		c-0.1,0.4,0,0.5,0,0.5s0.1-0.1,0.4-0.2c0.5-0.1,1,0.2,1.4,0.7c0.6,0.8-0.2,2.4-0.7,2.5c-0.6,0.1-0.9-0.4-0.7-0.6
		c0.2-0.2,0.5-0.3,0.3-0.7c-0.2-0.4-1-0.8-1.5-1.3c-1.2-1.4-1.6-2.4-1.6-2.4s-0.2,0.2-0.3,0.7c0,0.5,0.5,1.2,0.5,1.2
		s-0.2-0.2-0.4-0.4c-0.2-0.2-0.4-0.4-0.4-0.4s-0.3,0.2-0.1,0.6c0.2,0.4,0.4,0.7,0.4,0.7s-0.1-0.1-0.3-0.1c-0.2-0.1-0.4,0-0.4,0
		s0,0.2,0.1,0.4c0.1,0.2,0.4,0.4,0.4,0.4s-0.1,0-0.3,0c-0.2,0-0.3,0.1-0.3,0.1s0,0.1,0.2,0.4c0.2,0.3,0.5,0.4,0.5,0.4s-0.2,0-0.4,0
		c-0.2,0-0.3,0.1-0.3,0.1s0.1,0.2,0.3,0.4c0.1,0.1,0.4,0.2,0.4,0.2s-0.1,0-0.3,0.1c-0.2,0.1-0.3,0.3-0.3,0.3s0.2,0.2,0.4,0.3
		c0.2,0.1,0.4,0.1,0.4,0.1s-0.2,0.1-0.3,0.2c-0.2,0.2-0.2,0.4-0.2,0.4s0.2,0.1,0.4,0.1c0.2,0,0.4,0,0.4,0s-0.1,0.1-0.2,0.2
		c-0.1,0.2-0.1,0.4-0.1,0.4s0.2,0,0.4,0c0.2,0,0.2-0.1,0.2-0.1c0,0-0.1,0.1-0.2,0.3c0,0.1,0,0.3,0,0.3s0.2,0,0.4,0
		c0.2-0.1,0.3-0.2,0.3-0.2s-0.1,0.3,0.1,0.7c0,0,0.1,0,0.3-0.1c0.1-0.1,0.3-0.3,0.3-0.3s-0.1,0.1,0,0.3c0,0.2,0.2,0.3,0.2,0.3
		s0.3-0.1,0.4-0.2c0.2-0.2,0.2-0.4,0.2-0.4s0,0.2,0.2,0.3c0.1,0.1,0.2,0.2,0.2,0.2s0.2-0.2,0.3-0.3c0.1-0.4,0.1-0.7,0.1-0.7
		s0.1,0.1,0.2,0.1c0.2-0.1,0.1-0.2,0.1-0.2s0.4,0.6,0.3,1c-0.3,0.8-0.8,0.2-1.1,0.8c-0.2,0.4,0.1,0.8-0.1,0.9c-0.2,0.1-0.4,0-0.4,0
		s0.3,0.3,0.6,0.3c0.4,0,0.5-0.2,0.5-0.2s0.1,0.3-0.3,0.5c-0.4,0.2-0.7,0.3-0.8,0.1c-0.2-0.2-0.1-0.4-0.4-0.3
		c-0.3,0.1-0.6,0.3-0.6,0.4c0,0.2,0.1,0.3,0.1,0.3s-0.2,0.1,0.1,0.4c0.3,0.3,0.5,0.3,0.6,0.1c0.1-0.1,0.3-0.3,0.5-0.4
		c1.2-0.7,1.6-0.3,1.7-0.5c0.1-0.2-0.6-0.9-0.2-1c0.4-0.1,0.6-0.5,0.8-0.2c0.2,0.3,0.2,0.6,0,0.8c-0.2,0.2-0.3,0.4-0.3,0.4
		s-0.3,0.1-0.5,0.3c-0.2,0.2-0.5,0.6-0.6,0.3c-0.1-0.3,0.1-0.3,0.1-0.3s-0.3,0-0.4,0.3c0,0.2,0.2,0.3,0.2,0.3s-0.4,0.2-0.3,0.5
		c0.2,0.3,0.2,0.6,0.2,0.6s0.1-0.1,0.1-0.2c0.1-0.1,0-0.2,0-0.2s0,0.2,0.3,0.4c0.2,0.2,0.7,0,0.7,0s0,0.3,0.4,0.4
		c0.4,0.1,0.5-0.1,0.5-0.1s0,0.1,0.1,0.2c0.2,0.2,0.2,0.2,0.2,0.2s0.1,0,0.2-0.2c0.1-0.1,0.1-0.2,0.1-0.2s0.2,0.2,0.5,0.1
		c0.4-0.1,0.4-0.4,0.4-0.4s0.4,0.2,0.7,0c0.2-0.2,0.3-0.4,0.3-0.4s0,0.1,0,0.2c0.1,0.1,0.1,0.2,0.1,0.2s0.1-0.2,0.2-0.6
		c0.1-0.3-0.3-0.5-0.3-0.5s0.2-0.1,0.2-0.3c-0.1-0.3-0.4-0.3-0.4-0.3s0.2,0.1,0.1,0.3c-0.1,0.3-0.4-0.1-0.6-0.3
		c-0.2-0.2-0.5-0.3-0.5-0.3s-0.1-0.2-0.3-0.4c-0.2-0.2-0.2-0.5,0-0.8c0.2-0.3,0.4,0.1,0.8,0.2c0.4,0.1-0.3,0.8-0.2,1
		c0.1,0.2,0.5-0.2,1.7,0.5c0.3,0.2,0.4,0.3,0.5,0.4c0.1,0.1,0.2,0.2,0.6-0.1c0.3-0.3,0.1-0.4,0.1-0.4s0.1-0.2,0.1-0.3
		c0-0.2-0.3-0.4-0.6-0.4c-0.3-0.1-0.2,0.1-0.4,0.3c-0.2,0.2-0.4,0.1-0.8-0.1c-0.4-0.2-0.3-0.5-0.3-0.5s0.1,0.2,0.5,0.2
		c0.3,0,0.6-0.3,0.6-0.3s-0.1,0-0.4,0c-0.2-0.1,0.1-0.5-0.1-0.9c-0.3-0.5-0.8,0-1.1-0.8c-0.1-0.4,0.3-1,0.3-1S45,58,45.2,58.1
		c0.2,0.1,0.2-0.1,0.2-0.1s0,0.3,0.1,0.7c0,0.2,0.3,0.3,0.3,0.3s0.1,0,0.2-0.2c0.1-0.1,0.2-0.3,0.2-0.3s0,0.2,0.2,0.4
		c0.1,0.1,0.4,0.2,0.4,0.2s0.1-0.1,0.2-0.3c0-0.2,0-0.3,0-0.3s0.2,0.2,0.3,0.3c0.1,0.1,0.3,0.1,0.3,0.1c0.2-0.3,0.1-0.7,0.1-0.7
		s0.2,0.1,0.3,0.2c0.2,0.1,0.4,0,0.4,0s0-0.2,0-0.3c-0.1-0.2-0.2-0.3-0.2-0.3c0,0,0.1,0,0.2,0.1c0.2,0,0.4,0,0.4,0s0-0.2-0.1-0.4
		c0-0.1-0.2-0.2-0.2-0.2s0.2,0,0.4,0c0.2,0,0.4-0.1,0.4-0.1s0-0.2-0.2-0.4c-0.1-0.1-0.3-0.2-0.3-0.2s0.2,0,0.4-0.1
		c0.2-0.1,0.4-0.3,0.4-0.3s-0.1-0.2-0.3-0.3C48.9,56,48.8,56,48.8,56s0.3-0.1,0.4-0.2c0.3-0.2,0.3-0.4,0.3-0.4s-0.2-0.1-0.3-0.1
		c-0.2,0-0.4,0-0.4,0s0.3-0.1,0.5-0.4C49.6,54.7,49.6,54.6,49.6,54.6z"/>
	<path fill="#335CAA" d="M42.9,46.1c-6.4,0-11.6,5.2-11.6,11.6c0,6.4,5.2,11.6,11.6,11.6c6.4,0,11.6-5.2,11.6-11.6
		C54.5,51.3,49.3,46.1,42.9,46.1z M42.9,67.6c-5.4,0-9.9-4.4-9.9-9.9c0-5.4,4.4-9.9,9.9-9.9c5.4,0,9.9,4.4,9.9,9.9
		C52.8,63.1,48.4,67.6,42.9,67.6z"/>
	<path fill="#335CAA" d="M59.7,5.4h-8.2V0.9c0-0.5-0.4-0.9-0.9-0.9H0.9C0.4,0,0,0.4,0,0.9v66c0,0.5,0.4,0.9,0.9,0.9H9v4.5
		c0,0.5,0.4,0.9,0.9,0.9h49.8c0.5,0,0.9-0.4,0.9-0.9v-66C60.6,5.7,60.2,5.4,59.7,5.4z M1.7,66V1.7h48.1v3.6H9.9C9.4,5.4,9,5.7,9,6.2
		V66H1.7z M58.8,71.4H10.7V7.1h48.1V71.4z"/>
</g>
</svg>
