<?xml version="1.0" encoding="utf-8"?>
<!-- Generator: Adobe Illustrator 18.0.0, SVG Export Plug-In . SVG Version: 6.00 Build 0)  -->
<!DOCTYPE svg PUBLIC "-//W3C//DTD SVG 1.1//EN" "http://www.w3.org/Graphics/SVG/1.1/DTD/svg11.dtd">
<svg version="1.1" id="Слой_2" xmlns="http://www.w3.org/2000/svg" xmlns:xlink="http://www.w3.org/1999/xlink" x="0px" y="0px"
	 viewBox="0 0 103.1 67.3" enable-background="new 0 0 103.1 67.3" xml:space="preserve">
<g>
	<path fill="#335CAA" d="M103.1,1c0-0.6-0.4-1-1-1H1C0.4,0,0,0.4,0,1c0,0,0,0.1,0,0.1c0,0,0,0.1,0,0.1v53.2v12c0,0.6,0.4,1,1,1
		h101.1c0.6,0,1-0.4,1-1v-12V1.2C103.1,1.2,103.1,1.1,103.1,1C103.1,1.1,103.1,1,103.1,1z M101.1,53.3H2V2.2h99.1V53.3z M101.1,65.3
		H2v-10h99.1V65.3z"/>
	<path fill="#335CAA" d="M9.2,45h26.1c0.6,0,1-0.4,1-1V11.2c0-0.6-0.4-1-1-1H9.2c-0.6,0-1,0.4-1,1V44C8.2,44.6,8.7,45,9.2,45z
		 M10.2,12.2h24.1V43H10.2V12.2z"/>
	<path fill="#335CAA" d="M46.7,12.2h47.5c0.6,0,1-0.4,1-1s-0.4-1-1-1H46.7c-0.6,0-1,0.4-1,1S46.1,12.2,46.7,12.2z"/>
	<path fill="#335CAA" d="M46.7,18.5h47.5c0.6,0,1-0.4,1-1s-0.4-1-1-1H46.7c-0.6,0-1,0.4-1,1S46.1,18.5,46.7,18.5z"/>
	<path fill="#335CAA" d="M46.7,28.6h47.5c0.6,0,1-0.4,1-1s-0.4-1-1-1H46.7c-0.6,0-1,0.4-1,1S46.1,28.6,46.7,28.6z"/>
	<path fill="#335CAA" d="M46.7,35.3h47.5c0.6,0,1-0.4,1-1s-0.4-1-1-1H46.7c-0.6,0-1,0.4-1,1S46.1,35.3,46.7,35.3z"/>
	<path fill="#335CAA" d="M46.7,41.6h17.1c0.6,0,1-0.4,1-1s-0.4-1-1-1H46.7c-0.6,0-1,0.4-1,1S46.1,41.6,46.7,41.6z"/>
	<path fill="#335CAA" d="M94.2,39.6h-8.6c-0.6,0-1,0.4-1,1s0.4,1,1,1h8.6c0.6,0,1-0.4,1-1S94.8,39.6,94.2,39.6z"/>
	<path fill="#335CAA" d="M10.3,60.2l-1.7,1.7c-0.4,0.4-0.4,1,0,1.4c0.2,0.2,0.5,0.3,0.7,0.3s0.5-0.1,0.7-0.3l2.4-2.4
		c0.4-0.4,0.4-1,0-1.4l-2.5-2.5c-0.4-0.4-1-0.4-1.4,0s-0.4,1,0,1.4L10.3,60.2z"/>
	<path fill="#335CAA" d="M16.7,60.2L15,61.9c-0.4,0.4-0.4,1,0,1.4c0.2,0.2,0.5,0.3,0.7,0.3s0.5-0.1,0.7-0.3l2.4-2.4
		c0.2-0.2,0.3-0.4,0.3-0.7c0-0.3-0.1-0.5-0.3-0.7l-2.5-2.5c-0.4-0.4-1-0.4-1.4,0s-0.4,1,0,1.4L16.7,60.2z"/>
	<path fill="#335CAA" d="M23,60.2l-1.7,1.7c-0.4,0.4-0.4,1,0,1.4c0.2,0.2,0.5,0.3,0.7,0.3s0.5-0.1,0.7-0.3l2.4-2.4
		c0.2-0.2,0.3-0.4,0.3-0.7s-0.1-0.5-0.3-0.7l-2.5-2.5c-0.4-0.4-1-0.4-1.4,0s-0.4,1,0,1.4L23,60.2z"/>
	<path fill="#335CAA" d="M35.7,60.2L34,61.9c-0.4,0.4-0.4,1,0,1.4c0.2,0.2,0.5,0.3,0.7,0.3s0.5-0.1,0.7-0.3l2.4-2.4
		c0.4-0.4,0.4-1,0-1.4l-2.5-2.5c-0.4-0.4-1-0.4-1.4,0s-0.4,1,0,1.4L35.7,60.2z"/>
	<path fill="#335CAA" d="M42.1,60.2l-1.7,1.7c-0.4,0.4-0.4,1,0,1.4c0.2,0.2,0.5,0.3,0.7,0.3s0.5-0.1,0.7-0.3l2.4-2.4
		c0.4-0.4,0.4-1,0-1.4l-2.5-2.5c-0.4-0.4-1-0.4-1.4,0s-0.4,1,0,1.4L42.1,60.2z"/>
	<path fill="#335CAA" d="M48.4,60.2l-1.7,1.7c-0.4,0.4-0.4,1,0,1.4c0.2,0.2,0.5,0.3,0.7,0.3s0.5-0.1,0.7-0.3l2.4-2.4
		c0.2-0.2,0.3-0.4,0.3-0.7s-0.1-0.5-0.3-0.7L48,56.9c-0.4-0.4-1-0.4-1.4,0s-0.4,1,0,1.4L48.4,60.2z"/>
	<path fill="#335CAA" d="M29.4,60.2l-1.7,1.7c-0.4,0.4-0.4,1,0,1.4c0.2,0.2,0.5,0.3,0.7,0.3s0.5-0.1,0.7-0.3l2.4-2.4
		c0.4-0.4,0.4-1,0-1.4L29,56.9c-0.4-0.4-1-0.4-1.4,0s-0.4,1,0,1.4L29.4,60.2z"/>
	<path fill="#335CAA" d="M54.8,60.2L53,61.9c-0.4,0.4-0.4,1,0,1.4c0.2,0.2,0.5,0.3,0.7,0.3s0.5-0.1,0.7-0.3l2.4-2.4
		c0.2-0.2,0.3-0.4,0.3-0.7s-0.1-0.5-0.3-0.7l-2.5-2.5c-0.4-0.4-1-0.4-1.4,0s-0.4,1,0,1.4L54.8,60.2z"/>
	<path fill="#335CAA" d="M61.1,60.2l-1.7,1.7c-0.4,0.4-0.4,1,0,1.4c0.2,0.2,0.5,0.3,0.7,0.3s0.5-0.1,0.7-0.3l2.4-2.4
		c0.4-0.4,0.4-1,0-1.4l-2.5-2.5c-0.4-0.4-1-0.4-1.4,0s-0.4,1,0,1.4L61.1,60.2z"/>
	<path fill="#335CAA" d="M67.4,60.2l-1.7,1.7c-0.4,0.4-0.4,1,0,1.4c0.2,0.2,0.5,0.3,0.7,0.3s0.5-0.1,0.7-0.3l2.4-2.4
		c0.4-0.4,0.4-1,0-1.4L67,56.9c-0.4-0.4-1-0.4-1.4,0s-0.4,1,0,1.4L67.4,60.2z"/>
	<path fill="#335CAA" d="M73.8,60.2l-1.7,1.7c-0.4,0.4-0.4,1,0,1.4c0.2,0.2,0.5,0.3,0.7,0.3s0.5-0.1,0.7-0.3l2.4-2.4
		c0.2-0.2,0.3-0.4,0.3-0.7c0-0.3-0.1-0.5-0.3-0.7l-2.5-2.5c-0.4-0.4-1-0.4-1.4,0s-0.4,1,0,1.4L73.8,60.2z"/>
	<path fill="#335CAA" d="M80.1,60.2l-1.7,1.7c-0.4,0.4-0.4,1,0,1.4c0.2,0.2,0.5,0.3,0.7,0.3s0.5-0.1,0.7-0.3l2.4-2.4
		c0.2-0.2,0.3-0.4,0.3-0.7s-0.1-0.5-0.3-0.7l-2.5-2.5c-0.4-0.4-1-0.4-1.4,0s-0.4,1,0,1.4L80.1,60.2z"/>
	<path fill="#335CAA" d="M86.5,60.1l-1.7,1.7c-0.4,0.4-0.4,1,0,1.4c0.2,0.2,0.5,0.3,0.7,0.3c0.3,0,0.5-0.1,0.7-0.3l2.4-2.4
		c0.2-0.2,0.3-0.4,0.3-0.7s-0.1-0.5-0.3-0.7l-2.5-2.5c-0.4-0.4-1-0.4-1.4,0c-0.4,0.4-0.4,1,0,1.4L86.5,60.1z"/>
	<path fill="#335CAA" d="M92.8,60.1l-1.7,1.7c-0.4,0.4-0.4,1,0,1.4c0.2,0.2,0.5,0.3,0.7,0.3c0.3,0,0.5-0.1,0.7-0.3l2.4-2.4
		c0.2-0.2,0.3-0.4,0.3-0.7s-0.1-0.5-0.3-0.7l-2.5-2.5c-0.4-0.4-1-0.4-1.4,0c-0.4,0.4-0.4,1,0,1.4L92.8,60.1z"/>
</g>
</svg>
