<?xml version="1.0" encoding="utf-8"?>
<!-- Generator: Adobe Illustrator 18.0.0, SVG Export Plug-In . SVG Version: 6.00 Build 0)  -->
<!DOCTYPE svg PUBLIC "-//W3C//DTD SVG 1.1//EN" "http://www.w3.org/Graphics/SVG/1.1/DTD/svg11.dtd">
<svg version="1.1" id="Слой_2" xmlns="http://www.w3.org/2000/svg" xmlns:xlink="http://www.w3.org/1999/xlink" x="0px" y="0px"
	 viewBox="0 0 60.7 67.2" enable-background="new 0 0 60.7 67.2" xml:space="preserve">
<g>
	<path fill="#335CAA" d="M57,25.1v-1.4c0-0.5-0.4-0.9-0.9-0.9H55c-0.4-1.7-1.9-3-3.7-3H38.3v-14c0-3.2-2.6-5.9-5.9-5.9h-16
		c-0.1,0-8.2,0-9.8,0C6.6,0,6.5,0,6.4,0C3.2,0,0.6,2.6,0.6,5.9c0,0.5,0.4,0.9,0.9,0.9h9.1v13.1H3.8c-2.1,0-3.8,1.7-3.8,3.8v39.7
		c0,2.1,1.7,3.8,3.8,3.8h53c2.1,0,3.8-1.7,3.8-3.8V50.1V39.4V28.9C60.7,26.9,59,25.2,57,25.1z M55.3,25.1H38.3v-0.5h15.8h1.1V25.1z
		 M51.2,21.6c0.8,0,1.5,0.5,1.9,1.2H38.3v-1.2H51.2z M32.5,1.8c2.3,0,4.1,1.8,4.1,4.1v19.2H12.3V5.9c0-1.6-0.6-3-1.7-4.1
		c2.6,0,5.6,0,5.8,0H32.5z M6.4,25.1c-0.1,0-0.2-0.1-0.2-0.2c0-0.1,0.1-0.2,0.2-0.2h4.2v0.5H6.4z M6.4,1.8C6.4,1.8,6.4,1.8,6.4,1.8
		c0.1,0,0.1,0,0.1,0c1.9,0,3.5,1.4,3.9,3.2h-8C2.8,3.2,4.4,1.8,6.4,1.8z M56.8,65.4h-53c-1.1,0-2-0.9-2-2V23.7c0-1.1,0.9-2,2-2h6.7
		v1.2H6.4H5.2c-0.5,0-0.9,0.4-0.9,0.9V26c0,0.5,0.4,0.9,0.9,0.9h1.1h49.8h0.7c1.1,0,2,0.9,2,2v9.6h-7.2c-2.5,0-4.5,2-4.5,4.5v3.4
		c0,2.5,2,4.5,4.5,4.5h7.2v12.4C58.9,64.5,58,65.4,56.8,65.4z M58.9,49.3h-7.2c-1.5,0-2.8-1.2-2.8-2.8v-3.4c0-1.5,1.2-2.8,2.8-2.8
		h7.2V49.3z"/>
	<path fill="#335CAA" d="M50.8,44.8c0,1.7,1.4,3.2,3.2,3.2c1.7,0,3.2-1.4,3.2-3.2c0-1.5-1.1-2.8-2.5-3.1c-0.2,0-0.4-0.1-0.6-0.1
		C52.2,41.6,50.8,43,50.8,44.8z M55.3,44.7c0,0.7-0.6,1.3-1.3,1.3c-0.7,0-1.3-0.6-1.3-1.3s0.6-1.3,1.3-1.3
		C54.7,43.4,55.3,44,55.3,44.7z"/>
	<path fill="#335CAA" d="M14.2,9.3h19.3c0.5,0,0.9-0.4,0.9-0.9S34,7.6,33.5,7.6H14.2c-0.5,0-0.9,0.4-0.9,0.9S13.7,9.3,14.2,9.3z"/>
	<path fill="#335CAA" d="M14.2,13.1h19.3c0.5,0,0.9-0.4,0.9-0.9s-0.4-0.9-0.9-0.9H14.2c-0.5,0-0.9,0.4-0.9,0.9S13.7,13.1,14.2,13.1z
		"/>
	<path fill="#335CAA" d="M14.2,16.8h19.3c0.5,0,0.9-0.4,0.9-0.9s-0.4-0.9-0.9-0.9H14.2c-0.5,0-0.9,0.4-0.9,0.9S13.7,16.8,14.2,16.8z
		"/>
	<path fill="#335CAA" d="M14.2,20.6h19.3c0.5,0,0.9-0.4,0.9-0.9s-0.4-0.9-0.9-0.9H14.2c-0.5,0-0.9,0.4-0.9,0.9S13.7,20.6,14.2,20.6z
		"/>
</g>
</svg>
